<svg width="108" height="18" viewBox="0 0 108 18" fill="none" xmlns="http://www.w3.org/2000/svg">
<g id="Group 7">
<path id="Vector" d="M48.3438 16.5061L47.5684 14.5397C47.3885 14.0823 47.0259 13.7211 46.5685 13.5398L44.6021 12.7644C44.2283 12.6166 44.2283 12.0866 44.6021 11.9402L46.5685 11.1648C47.0259 10.9849 47.3871 10.6223 47.5684 10.1648L48.3438 8.19842C48.4917 7.82467 49.0216 7.82467 49.1681 8.19842L49.9435 10.1648C50.1234 10.6223 50.486 10.9835 50.9434 11.1648L52.9098 11.9402C53.2836 12.088 53.2836 12.618 52.9098 12.7644L50.9434 13.5398C50.486 13.7197 50.1248 14.0823 49.9435 14.5397L49.1681 16.5061C49.0202 16.8799 48.4903 16.8799 48.3438 16.5061Z" fill="black"/>
<g id="their">
<path id="Vector_2" d="M38.1821 16.7865C38.1821 15.0449 38.1821 13.2896 38.1821 11.5207C38.1821 9.73823 38.1821 7.97615 38.1821 6.23449C38.74 6.23449 39.3047 6.23449 39.8762 6.23449C40.4476 6.23449 41.0055 6.23449 41.5498 6.23449C41.5498 6.32974 41.5498 6.42498 41.5498 6.52023C41.5498 6.61548 41.5498 6.71073 41.5498 6.80597C41.9716 6.50662 42.4478 6.28211 42.9785 6.13244C43.5092 5.98277 44.0875 5.94195 44.7134 6.00998C44.7134 6.55425 44.7134 7.10532 44.7134 7.6632C44.7134 8.22108 44.7134 8.77215 44.7134 9.31642C43.6384 9.16674 42.8424 9.26199 42.3254 9.60216C41.8083 9.92872 41.5498 10.4662 41.5498 11.2146C41.5498 12.1262 41.5498 13.0515 41.5498 13.9903C41.5498 14.9292 41.5498 15.8613 41.5498 16.7865C41.0055 16.7865 40.4476 16.7865 39.8762 16.7865C39.3047 16.7865 38.74 16.7865 38.1821 16.7865Z" fill="black"/>
<path id="Vector_3" d="M34.1583 5.03028C33.7637 5.03028 33.4031 4.93503 33.0766 4.74454C32.7636 4.55404 32.5119 4.30232 32.3214 3.98936C32.1309 3.67641 32.0356 3.32943 32.0356 2.94845C32.0356 2.56746 32.1309 2.22729 32.3214 1.92794C32.5119 1.61498 32.7636 1.36326 33.0766 1.17277C33.4031 0.982271 33.7637 0.887024 34.1583 0.887024C34.5393 0.887024 34.8863 0.982271 35.1992 1.17277C35.5258 1.36326 35.7843 1.61498 35.9748 1.92794C36.1653 2.22729 36.2605 2.56746 36.2605 2.94845C36.2605 3.32943 36.1653 3.67641 35.9748 3.98936C35.7843 4.30232 35.5258 4.55404 35.1992 4.74454C34.8863 4.93503 34.5393 5.03028 34.1583 5.03028ZM32.4643 16.7865C32.4643 15.0448 32.4643 13.2896 32.4643 11.5207C32.4643 9.73821 32.4643 7.97614 32.4643 6.23447C33.0221 6.23447 33.5868 6.23447 34.1583 6.23447C34.7298 6.23447 35.2877 6.23447 35.8319 6.23447C35.8319 7.97614 35.8319 9.73821 35.8319 11.5207C35.8319 13.2896 35.8319 15.0448 35.8319 16.7865C35.2877 16.7865 34.7298 16.7865 34.1583 16.7865C33.5868 16.7865 33.0221 16.7865 32.4643 16.7865Z" fill="black"/>
<path id="Vector_4" d="M29.8642 16.2967C28.9253 16.6913 27.9933 16.9362 27.068 17.0314C26.1427 17.1267 25.2651 17.0722 24.4351 16.8681C23.6187 16.6777 22.8907 16.3443 22.2512 15.868C21.6117 15.3918 21.1083 14.7863 20.7409 14.0515C20.3871 13.3168 20.2102 12.4664 20.2102 11.5003C20.2102 10.6975 20.3395 9.96272 20.598 9.29599C20.8701 8.61566 21.2511 8.02376 21.741 7.52031C22.2308 7.00326 22.8091 6.60866 23.4758 6.33653C24.1426 6.05078 24.8705 5.90791 25.6597 5.90791C26.3673 5.90791 27.0068 6.02357 27.5783 6.25489C28.1497 6.4862 28.6464 6.81276 29.0682 7.23457C29.49 7.64277 29.8302 8.13262 30.0887 8.7041C30.3472 9.27558 30.5105 9.90149 30.5785 10.5818C30.6466 11.2622 30.6058 11.9833 30.4561 12.7453C29.3403 12.7453 28.2178 12.7453 27.0884 12.7453C25.9591 12.7453 24.8365 12.7453 23.7207 12.7453C23.9793 13.2624 24.4079 13.6297 25.0066 13.8474C25.6189 14.0652 26.34 14.1332 27.1701 14.0515C28.0137 13.9699 28.9117 13.7522 29.8642 13.3984C29.8642 13.8747 29.8642 14.3577 29.8642 14.8475C29.8642 15.3374 29.8642 15.8204 29.8642 16.2967ZM25.5781 8.92861C25.1835 8.92861 24.8161 9.03747 24.4759 9.25517C24.1494 9.47288 23.8976 9.80625 23.7207 10.2553C24.333 10.2553 24.9454 10.2553 25.5577 10.2553C26.1836 10.2553 26.8027 10.2553 27.415 10.2553C27.2517 9.79264 27.0068 9.45927 26.6802 9.25517C26.3673 9.03747 25.9999 8.92861 25.5781 8.92861Z" fill="black"/>
<path id="Vector_5" d="M8.66577 16.7865C8.66577 14.3237 8.66577 11.8404 8.66577 9.33679C8.66577 6.83315 8.66577 4.34992 8.66577 1.8871C9.22365 1.8871 9.78833 1.8871 10.3598 1.8871C10.9313 1.8871 11.4892 1.8871 12.0334 1.8871C12.0334 2.6899 12.0334 3.5063 12.0334 4.33631C12.0334 5.15272 12.0334 5.96232 12.0334 6.76512C12.4008 6.50659 12.809 6.30929 13.258 6.17322C13.7207 6.02355 14.2173 5.94871 14.748 5.94871C15.5236 5.94871 16.2039 6.1256 16.789 6.47938C17.3877 6.83315 17.8503 7.3434 18.1769 8.01013C18.5171 8.66326 18.6871 9.45245 18.6871 10.3777C18.6871 11.439 18.6871 12.5072 18.6871 13.5821C18.6871 14.657 18.6871 15.7252 18.6871 16.7865C18.1429 16.7865 17.585 16.7865 17.0135 16.7865C16.442 16.7865 15.8773 16.7865 15.3195 16.7865C15.3195 15.8068 15.3195 14.8135 15.3195 13.8066C15.3195 12.7997 15.3195 11.8064 15.3195 10.8267C15.3195 10.2825 15.1902 9.84704 14.9317 9.52048C14.6868 9.18031 14.2922 9.01023 13.7479 9.01023C13.2036 9.01023 12.7818 9.16671 12.4825 9.47966C12.1831 9.79262 12.0334 10.2416 12.0334 10.8267C12.0334 11.8064 12.0334 12.7997 12.0334 13.8066C12.0334 14.8135 12.0334 15.8068 12.0334 16.7865C11.4892 16.7865 10.9313 16.7865 10.3598 16.7865C9.78833 16.7865 9.22365 16.7865 8.66577 16.7865Z" fill="black"/>
<path id="Vector_6" d="M1.65322 16.7865C1.65322 15.5347 1.65322 14.276 1.65322 13.0106C1.65322 11.7452 1.65322 10.4934 1.65322 9.25515C1.38108 9.25515 1.10215 9.25515 0.816405 9.25515C0.54427 9.25515 0.272135 9.25515 0 9.25515C0 8.75171 0 8.24825 0 7.74481C0 7.24136 0 6.73791 0 6.23446C0.272135 6.23446 0.54427 6.23446 0.816405 6.23446C1.10215 6.23446 1.38108 6.23446 1.65322 6.23446C1.65322 5.75822 1.65322 5.28879 1.65322 4.82616C1.65322 4.34992 1.65322 3.88049 1.65322 3.41786C2.2111 3.41786 2.77578 3.41786 3.34726 3.41786C3.91874 3.41786 4.47662 3.41786 5.02089 3.41786C5.02089 3.88049 5.02089 4.34992 5.02089 4.82616C5.02089 5.28879 5.02089 5.75822 5.02089 6.23446C5.33384 6.23446 5.6536 6.23446 5.98016 6.23446C6.30673 6.23446 6.62648 6.23446 6.93944 6.23446C6.93944 6.73791 6.93944 7.24136 6.93944 7.74481C6.93944 8.24825 6.93944 8.75171 6.93944 9.25515C6.62648 9.25515 6.30673 9.25515 5.98016 9.25515C5.6536 9.25515 5.33384 9.25515 5.02089 9.25515C5.02089 10.4934 5.02089 11.7452 5.02089 13.0106C5.02089 14.276 5.02089 15.5347 5.02089 16.7865C4.47662 16.7865 3.91874 16.7865 3.34726 16.7865C2.77578 16.7865 2.2111 16.7865 1.65322 16.7865Z" fill="black"/>
</g>
<g id="mood">
<path id="Vector_7" d="M104.26 16.7865C104.26 16.6776 104.26 16.5756 104.26 16.4803C104.26 16.3715 104.26 16.2694 104.26 16.1742C103.92 16.4599 103.532 16.6776 103.097 16.8273C102.675 16.9906 102.219 17.0722 101.729 17.0722C101.035 17.0722 100.382 16.9362 99.7697 16.664C99.1574 16.3919 98.6131 16.0109 98.1369 15.5211C97.6743 15.0176 97.3069 14.4257 97.0348 13.7454C96.7762 13.065 96.647 12.3167 96.647 11.5003C96.647 10.6703 96.7762 9.91508 97.0348 9.23474C97.3069 8.5544 97.6743 7.96931 98.1369 7.47947C98.6131 6.98963 99.1574 6.61544 99.7697 6.35691C100.382 6.08478 101.028 5.94871 101.709 5.94871C102.199 5.94871 102.661 6.03035 103.097 6.19363C103.532 6.34331 103.92 6.55421 104.26 6.82635C104.26 6.00994 104.26 5.18673 104.26 4.35672C104.26 3.52671 104.26 2.7035 104.26 1.8871C104.818 1.8871 105.382 1.8871 105.954 1.8871C106.525 1.8871 107.083 1.8871 107.628 1.8871C107.628 4.34992 107.628 6.83315 107.628 9.33679C107.628 11.8404 107.628 14.3237 107.628 16.7865C107.083 16.7865 106.525 16.7865 105.954 16.7865C105.382 16.7865 104.818 16.7865 104.26 16.7865ZM102.178 14.0923C102.831 14.0923 103.355 13.8542 103.75 13.378C104.144 12.9018 104.342 12.2758 104.342 11.5003C104.342 10.7247 104.144 10.1056 103.75 9.64294C103.355 9.16671 102.831 8.92859 102.178 8.92859C101.511 8.92859 100.981 9.1599 100.586 9.62253C100.205 10.0852 100.015 10.7111 100.015 11.5003C100.015 12.2895 100.205 12.9222 100.586 13.3984C100.981 13.861 101.511 14.0923 102.178 14.0923Z" fill="black"/>
<path id="Vector_8" d="M89.9811 17.113C89.1919 17.113 88.4572 16.977 87.7768 16.7048C87.0965 16.4191 86.5046 16.0245 86.0012 15.521C85.4977 15.004 85.1031 14.4053 84.8174 13.7249C84.5452 13.0446 84.4092 12.303 84.4092 11.5002C84.4092 10.6974 84.5452 9.95587 84.8174 9.27554C85.1031 8.5952 85.4977 8.00331 86.0012 7.49986C86.5046 6.99641 87.0965 6.60862 87.7768 6.33648C88.4572 6.05074 89.1919 5.90787 89.9811 5.90787C90.7839 5.90787 91.5187 6.05074 92.1854 6.33648C92.8658 6.60862 93.4577 6.99641 93.9611 7.49986C94.4646 8.00331 94.8524 8.5952 95.1245 9.27554C95.4102 9.95587 95.5531 10.6974 95.5531 11.5002C95.5531 12.303 95.4102 13.0446 95.1245 13.7249C94.8524 14.4053 94.4646 15.004 93.9611 15.521C93.4577 16.0245 92.8658 16.4191 92.1854 16.7048C91.5187 16.977 90.7839 17.113 89.9811 17.113ZM89.9811 14.0719C90.6479 14.0719 91.1785 13.8338 91.5731 13.3576C91.9813 12.8677 92.1854 12.2486 92.1854 11.5002C92.1854 10.7383 91.9813 10.126 91.5731 9.66333C91.1785 9.18709 90.6479 8.94898 89.9811 8.94898C89.3144 8.94898 88.7769 9.18709 88.3687 9.66333C87.9741 10.126 87.7768 10.7383 87.7768 11.5002C87.7768 12.2486 87.9741 12.8677 88.3687 13.3576C88.7769 13.8338 89.3144 14.0719 89.9811 14.0719Z" fill="black"/>
<path id="Vector_9" d="M77.7429 17.113C76.9537 17.113 76.2189 16.977 75.5386 16.7048C74.8582 16.4191 74.2663 16.0245 73.7629 15.521C73.2594 15.004 72.8648 14.4053 72.5791 13.7249C72.307 13.0446 72.1709 12.303 72.1709 11.5002C72.1709 10.6974 72.307 9.95587 72.5791 9.27554C72.8648 8.5952 73.2594 8.00331 73.7629 7.49986C74.2663 6.99641 74.8582 6.60862 75.5386 6.33648C76.2189 6.05074 76.9537 5.90787 77.7429 5.90787C78.5457 5.90787 79.2804 6.05074 79.9472 6.33648C80.6275 6.60862 81.2194 6.99641 81.7228 7.49986C82.2263 8.00331 82.6141 8.5952 82.8862 9.27554C83.1719 9.95587 83.3148 10.6974 83.3148 11.5002C83.3148 12.303 83.1719 13.0446 82.8862 13.7249C82.6141 14.4053 82.2263 15.004 81.7228 15.521C81.2194 16.0245 80.6275 16.4191 79.9472 16.7048C79.2804 16.977 78.5457 17.113 77.7429 17.113ZM77.7429 14.0719C78.4096 14.0719 78.9403 13.8338 79.3348 13.3576C79.7431 12.8677 79.9472 12.2486 79.9472 11.5002C79.9472 10.7383 79.7431 10.126 79.3348 9.66333C78.9403 9.18709 78.4096 8.94898 77.7429 8.94898C77.0761 8.94898 76.5387 9.18709 76.1305 9.66333C75.7359 10.126 75.5386 10.7383 75.5386 11.5002C75.5386 12.2486 75.7359 12.8677 76.1305 13.3576C76.5387 13.8338 77.0761 14.0719 77.7429 14.0719Z" fill="black"/>
<path id="Vector_10" d="M55.043 16.7865C55.043 15.0448 55.043 13.2895 55.043 11.5206C55.043 9.73816 55.043 7.97609 55.043 6.23443C55.6008 6.23443 56.1655 6.23443 56.737 6.23443C57.3085 6.23443 57.8664 6.23443 58.4106 6.23443C58.4106 6.32967 58.4106 6.41812 58.4106 6.49976C58.4106 6.5814 58.4106 6.66984 58.4106 6.76509C58.7644 6.50656 59.159 6.30926 59.5944 6.1732C60.0298 6.02352 60.4789 5.94868 60.9415 5.94868C61.4449 5.94868 61.9076 6.03713 62.3294 6.21402C62.7512 6.3773 63.1118 6.62222 63.4111 6.94878C63.8465 6.63583 64.3364 6.3909 64.8806 6.21402C65.4385 6.03713 66.01 5.94868 66.5951 5.94868C67.4251 5.94868 68.1395 6.11877 68.7382 6.45894C69.3505 6.79911 69.8199 7.28214 70.1465 7.90806C70.4866 8.53397 70.6567 9.28914 70.6567 10.1736C70.6567 11.2621 70.6567 12.3643 70.6567 13.48C70.6567 14.5958 70.6567 15.6979 70.6567 16.7865C70.1124 16.7865 69.5546 16.7865 68.9831 16.7865C68.4116 16.7865 67.8469 16.7865 67.289 16.7865C67.289 15.7659 67.289 14.7318 67.289 13.6841C67.289 12.6364 67.289 11.6023 67.289 10.5818C67.289 10.1192 67.1802 9.74497 66.9625 9.45922C66.7584 9.15988 66.425 9.0102 65.9624 9.0102C65.5134 9.0102 65.1596 9.15307 64.9011 9.43881C64.6561 9.71095 64.5337 10.0919 64.5337 10.5818C64.5337 11.6023 64.5337 12.6364 64.5337 13.6841C64.5337 14.7318 64.5337 15.7659 64.5337 16.7865C63.9894 16.7865 63.4315 16.7865 62.86 16.7865C62.2886 16.7865 61.7239 16.7865 61.166 16.7865C61.166 15.7659 61.166 14.7318 61.166 13.6841C61.166 12.6364 61.166 11.6023 61.166 10.5818C61.166 10.1192 61.0571 9.74497 60.8394 9.45922C60.6353 9.15988 60.302 9.0102 59.8393 9.0102C59.3903 9.0102 59.0365 9.15307 58.778 9.43881C58.5331 9.71095 58.4106 10.0919 58.4106 10.5818C58.4106 11.6023 58.4106 12.6364 58.4106 13.6841C58.4106 14.7318 58.4106 15.7659 58.4106 16.7865C57.8664 16.7865 57.3085 16.7865 56.737 16.7865C56.1655 16.7865 55.6008 16.7865 55.043 16.7865Z" fill="black"/>
</g>
</g>
</svg>
